<svg width="252" height="54" viewBox="0 0 252 54" fill="none" xmlns="http://www.w3.org/2000/svg">
<path d="M0.556824 9.76419V0.636353H43.5625V9.76419H27.5313V53H16.5881V9.76419H0.556824Z" fill="white"/>
<path d="M154.097 53H135.535V0.636353H154.25C159.518 0.636353 164.052 1.68465 167.853 3.78124C171.654 5.86078 174.577 8.85226 176.623 12.7557C178.685 16.6591 179.716 21.3295 179.716 26.767C179.716 32.2216 178.685 36.9091 176.623 40.8295C174.577 44.75 171.637 47.7585 167.802 49.8551C163.983 51.9517 159.415 53 154.097 53ZM146.606 43.5142H153.637C156.91 43.5142 159.662 42.9346 161.895 41.7756C164.145 40.5994 165.833 38.7841 166.958 36.3295C168.1 33.8579 168.671 30.6704 168.671 26.767C168.671 22.8977 168.1 19.7358 166.958 17.2812C165.833 14.8267 164.154 13.0199 161.921 11.8608C159.688 10.7017 156.935 10.1222 153.662 10.1222H146.606V43.5142Z" fill="white"/>
<path fill-rule="evenodd" clip-rule="evenodd" d="M86 54C99.8071 54 111 41.9117 111 27C111 12.0883 99.8071 0 86 0C72.1929 0 61 12.0883 61 27C61 41.9117 72.1929 54 86 54ZM84.8727 15.7284L72.231 35.9397C71.5989 36.9726 72.3389 38.2984 73.5414 38.2984H98.8248C100.043 38.2984 100.767 36.9726 100.135 35.9397L87.4935 15.7284C86.8923 14.7572 85.4739 14.7572 84.8727 15.7284Z" fill="white"/>
<path fill-rule="evenodd" clip-rule="evenodd" d="M227 54C240.807 54 252 41.9117 252 27C252 12.0883 240.807 0 227 0C213.193 0 202 12.0883 202 27C202 41.9117 213.193 54 227 54ZM236.875 15H218.125C216.406 15 215 16.4062 215 18.125V36.875C215 38.5938 216.406 40 218.125 40H236.875C238.594 40 240 38.5938 240 36.875V18.125C240 16.4062 238.594 15 236.875 15Z" fill="white"/>
</svg>
