<svg width="70" height="70" viewBox="0 0 70 70" fill="none" xmlns="http://www.w3.org/2000/svg">
<circle cx="35" cy="35" r="35" fill="#0284C7"/>
<path fill-rule="evenodd" clip-rule="evenodd" d="M14.1384 42.2789L21.7141 27.5315C22.0744 26.8228 22.9243 26.8228 23.2846 27.5315L30.8602 42.2789C31.239 43.0326 30.8048 44 30.075 44H14.9237C14.2031 44 13.7597 43.0326 14.1384 42.2789Z" fill="white"/>
<path fill-rule="evenodd" clip-rule="evenodd" d="M42.125 27H54.875C56.0438 27 57 27.9562 57 29.125V41.875C57 43.0438 56.0438 44 54.875 44H42.125C40.9562 44 40 43.0438 40 41.875V29.125C40 27.9562 40.9562 27 42.125 27Z" fill="white"/>
</svg>
